<?xml version='1.0' encoding='utf-8'?>
<svg xmlns="http://www.w3.org/2000/svg" version="1.1" id="Layer_1" x="0px" y="0px" width="3000px" height="3000px" viewBox="0 0 3000 3000" enable-background="new 0 0 3000 3000"> <rect x="0" fill="#AED5E7" width="3000" height="3000"/> <path fill="#61BCBA" d="M1501.05,2778.451c-1.024-0.146-2.048-0.234-3.073-0.264c-37.885-1.346-71.065-15.688-93.475-40.286 c-23.436-24.896-34.142-57.108-30.543-90.991c2.854-28.582-5.296-58.604-22.441-82.501c-7.931-10.826-17.729-20.425-29.229-28.673 c-10.226-7.316-22.311-12.406-37.126-15.71c-2.722-0.646-5.485-0.996-8.28-0.996c-10.054,0-20.059,4.095-28.204,11.499 c-7.17,6.497-10.474,16.205-8.749,25.718c1.711,9.476,8.191,17.403,17.146,20.978c6.641,2.657,12.96,6.168,18.868,10.439 c9.862,7.227,17.495,14.891,23.26,23.405c13.548,19.599,18.869,42.833,15.228,65.595c-3.67,22.939-22.276,43.064-51.065,55.268 c-11.763,5.234-25.749,8.482-41.957,9.799c-4.095,0.322-8.323,0.498-12.402,0.498c-10.972,0-20.66-1.139-29.727-3.479l-0.586-0.147 l-5.879-2.781c-1.256-0.583-2.546-1.109-3.894-1.49c-17.201-5.182-32.882-13.046-46.429-23.349l-0.527-0.412 c-13.401-10.94-24.477-24.134-32.418-38.851c-16.222-29.113-18.253-64.104-5.852-96.257c10.212-26.854,10.095-57.807-0.408-84.992 c-5.182-13.893-12.085-25.862-20.426-35.398c-4.036-4.712-8.729-9.126-14.625-13.778c-5.298-4.42-10.915-8.194-17.117-11.354 c-5.793-2.78-11.72-4.037-17.875-4.037c-6.907,0-13.825,1.58-20.027,4.649c-8.778,4.3-14.672,12.903-15.521,22.676 c-0.847,9.711,3.469,19.192,11.354,24.986c14.437,10.585,25.395,25.687,31.654,43.71c8.073,22.232,7.197,45.871-2.27,66.908 c-9.685,21.475-33.511,36.513-63.841,40.199c-5.499,0.645-11.25,0.968-16.938,0.968c-24.061,0-47.673-5.882-65.081-16.121 l-2.398-1.7l-3.713-3.069c-1.07-0.879-2.223-1.696-3.396-2.399c-7.344-4.389-14.278-9.333-20.609-14.74l-0.455-0.412 c-6.231-5.736-12.316-12.466-17.758-19.778c-10.866-14.866-18.285-30.397-21.813-46.051c-7.516-33.44-0.598-66.968,19.472-94.503 c21.326-29.398,23.669-61.117,21.867-82.529c-1.272-13.608-4.915-26.685-10.958-39.029c-5.851-12.758-13.782-23.584-24.106-32.387 l-0.498-0.531c-6.89-6.317-16.561-9.945-26.978-9.945c-3.333,0-6.758,0.349-10.034,1.081c-9.403,2.108-17.025,8.836-20.302,17.876 c-3.219,9.013-1.582,19.074,4.3,26.652c11.73,14.925,18.549,32.418,19.925,50.529c1.698,23.783-5.354,46.723-19.851,64.449 c-12.128,14.895-32.212,23.055-56.597,23.055c-4.916,0-10.008-0.378-15.098-1.023c-26.889-3.041-55.821-16.823-76.01-36.043 l-0.409-0.385l-4.211-5.673c-0.626-0.851-1.286-1.64-2.046-2.403c-12.305-13.191-21.942-28.022-28.599-44.089 c-6.306-14.831-9.437-32.181-9.012-50.321c0.543-16.853,4.402-32.886,11.587-47.394c7.476-14.927,18.066-28.03,31.318-38.827 c22.293-18.139,37.681-45.087,42.304-74.021c2.254-15.443,2.137-29.022-0.174-40.813c-2.43-12.699-7.434-25.079-15.127-37.742 c-5.735-9.013-15.111-14.979-26.652-17.291c-1.782-0.382-3.525-0.646-5.295-0.793c-0.921-0.114-1.817-0.146-2.781-0.146 c-8.863,0-17.32,4.214-22.585,11.498c-5.836,8.042-6.992,18.548-2.984,27.678c6.936,15.941,8.906,34.465,5.648,53.514 c-4.187,23.254-16.767,43.594-35.521,57.076c-9.947,7.195-22.821,11.001-37.299,11.001c-12.288,0-25.103-2.633-38.049-7.868 c-12.448-5.384-25.248-13.347-36.498-22.793c-5.573-4.623-10.737-9.686-15.446-14.89l-0.395-0.5 c-3.905-4.651-7.696-10.037-11.001-15.653l-1.448-3.104l-1.55-4.122c-0.526-1.465-1.167-2.81-1.929-4.154 c-17.292-30.194-21.709-66.708-12.199-100.119c10.239-33.118,32.473-58.366,64.17-72.409c13.504-6.027,25.644-14.57,36.152-25.482 c9.507-9.919,17.521-21.741,23.844-35.139c5.997-12.928,9.344-26.011,10.123-39.146c1.084-15.007-0.378-28.318-4.535-40.194 c-3.894-10.737-11.324-19.138-21.006-23.967c-2.166-1.109-4.519-2.043-6.933-2.836c-2.78-0.85-5.631-1.29-8.426-1.29 c-6.555,0-12.945,2.283-18.082,6.617c-7.314,6.2-10.942,15.707-9.624,25.218c0.157,1.43,0.353,2.924,0.48,4.445 c0.744,6.027,0.835,11.556,0.366,17.172c-0.91,11.001-3.951,21.854-8.922,32.154c-11.046,22.15-27.65,37.684-49.227,45.816 c-6.406,2.458-13.473,3.69-20.745,3.69c-5.438,0-11.087-0.703-16.749-2.111c-11.818-3.013-23.961-9.184-35.779-18.313 c-11.406-8.895-21.734-19.718-29.783-31.275c-7.75-11.766-13.953-24.693-17.581-37.042l-0.63-3.304l-0.48-4.504 c-0.149-1.435-0.409-2.866-0.821-4.274c-4.183-15.535-5.061-32.59-2.574-52.103c1.229-8.777,3.161-17.117,5.91-25.22 c2.984-7.899,6.815-15.593,11.382-22.966c18.109-28.965,46.634-47.782,80.282-52.986c28.172-4.503,55.118-20.127,73.992-42.859 c7.928-9.426,14.188-20.451,20.127-35.605c4.738-12.933,6.599-26.451,5.616-39.643l-0.103-1.113 c-0.339-12.109-7.563-24.373-19.443-32.006c-4.621-2.956-9.856-4.449-15.155-4.449c-4.037,0-8.063,0.851-11.759,2.578 c-8.723,4.065-14.777,12.313-15.947,21.82c-0.875,6.878-2.688,13.988-5.204,21.184c-3.688,10.5-9.218,20.041-16.677,28.701 c-15.536,18.02-36.744,29.254-59.684,31.509c-1.814,0.179-3.63,0.265-5.439,0.265c-21.592,0-43.213-12.58-60.796-35.433 c-16.588-20.597-27.283-50.76-28.25-79.118l-0.029-0.568l1.039-7.067c0.146-1.022,0.234-2.028,0.294-3.055 c1.316-37.857,15.653-71.037,40.241-93.49c21.549-20.216,49.401-31.188,78.688-31.188c4.097,0,8.281,0.224,12.348,0.658 c3.833,0.38,7.533,0.556,11.261,0.556c25.248,0,50.571-8.178,71.242-23.04c10.826-7.87,20.419-17.643,28.699-29.172 c7.258-10.229,12.379-22.311,15.684-37.112c2.854-12.125-0.993-25.804-10.417-36.353c-5.354-5.972-12.96-9.315-20.828-9.315 c-1.64,0-3.275,0.172-4.884,0.438c-9.51,1.697-17.513,8.178-21.123,17.172c-2.621,6.609-6.146,12.943-10.417,18.81 c-7.198,9.877-14.877,17.513-23.435,23.307c-15.228,10.514-33.585,16.281-51.696,16.281c-4.648,0-9.301-0.38-13.896-1.099 c-22.938-3.717-43.008-22.309-55.235-51.084c-5.298-11.879-8.458-25.45-9.819-41.926c-1.152-15.668-0.159-29.93,3.001-42.086 l0.146-0.611l2.807-5.88c0.602-1.261,1.113-2.561,1.491-3.904c5.192-17.248,13.006-32.869,23.346-46.431l0.44-0.571 c10.869-13.387,24.047-24.4,38.824-32.401c16.093-8.968,34.713-13.647,54.036-13.647c14.631,0,28.805,2.631,42.22,7.825 c13.132,5.001,27.12,7.518,41.716,7.518c14.806,0,29.783-2.706,43.242-7.896c13.893-5.195,25.846-12.097,35.428-20.437 c4.638-4.024,9.158-8.839,13.725-14.631c4.463-5.367,8.223-10.998,11.378-17.115c5.851-12.012,5.499-26.122-0.732-38.312 c-4.389-8.661-12.932-14.437-22.616-15.228c-0.787-0.03-1.551-0.073-2.279-0.073c-8.879,0-17.292,4.213-22.589,11.454 c-10.53,14.514-25.749,25.469-43.738,31.699c-9.742,3.539-20.217,5.354-30.634,5.354c-12.669,0-25.276-2.618-36.32-7.638 c-21.446-9.608-36.469-33.482-40.214-63.822c-3.29-29.025,2.429-60.416,15.187-81.979l1.726-2.384l3.044-3.745 c0.876-1.064,1.696-2.209,2.395-3.422c4.389-7.326,9.364-14.262,14.763-20.565l0.586-0.659c5.573-6.057,12.274-12.113,19.604-17.554 c14.906-10.914,30.438-18.287,46.049-21.824c8.571-1.934,17.363-2.868,26.023-2.868c24.808,0,48.435,7.708,68.489,22.369 c25.5,18.429,52.663,22.276,71.009,22.276c3.845,0,7.682-0.146,11.556-0.47c13.547-1.257,26.627-4.916,39.001-10.924 c12.726-5.807,23.523-13.808,32.387-24.095l0.438-0.438c8.635-9.359,12.024-23.391,8.952-37.198 c-2.148-9.378-8.863-16.953-17.875-20.175c-3.104-1.098-6.264-1.638-9.418-1.638c-6.16,0-12.231,2.005-17.235,5.939 c-14.92,11.675-32.416,18.548-50.525,19.88c-2.341,0.206-4.684,0.293-7.109,0.293c-21.152,0-41.515-7.15-57.373-20.146 c-18.287-14.917-26.126-40.401-22.059-71.707c3.087-26.826,16.852-55.763,36.029-75.963l0.423-0.41l5.708-4.258 c0.805-0.586,1.594-1.273,2.369-1.977c13.228-12.342,28.072-21.971,44.094-28.67c14.173-5.997,29.983-9.014,47.25-9.014l3.392,0.06 c16.534,0.482,32.547,4.405,47.135,11.573c14.892,7.473,27.966,18.053,38.75,31.332c18.185,22.266,45.099,37.668,74.063,42.307 c7.463,1.068,14.423,1.549,21.093,1.549c7.154,0,13.81-0.586,19.752-1.727c12.669-2.439,25.089-7.403,37.711-15.139 c9.012-5.778,14.995-15.141,17.231-26.697c0.381-1.535,0.646-3.51,0.835-5.47c0.91-9.86-3.467-19.44-11.513-25.22 c-4.83-3.468-10.563-5.265-16.325-5.265c-3.759,0-7.606,0.744-11.178,2.341c-10.766,4.696-23.229,7.152-36.071,7.152 c-5.794,0-11.673-0.495-17.467-1.491c-23.229-4.169-43.536-16.779-57.063-35.487c-13.725-18.958-14.807-46.4-3.119-75.352 c5.385-12.435,13.313-25.247,22.765-36.513c4.621-5.543,9.653-10.708,14.903-15.444l0.513-0.426 c4.844-4.056,10.591-8.06,16.646-11.558l0.469-0.306l5.735-2.137c1.463-0.511,2.821-1.17,4.184-1.917 c19.529-11.16,41.922-17.039,64.748-17.039c12.079,0,23.986,1.624,35.368,4.839c33.122,10.254,58.367,32.52,72.409,64.176 c6.028,13.503,14.601,25.632,25.483,36.116c9.919,9.51,21.681,17.541,35.11,23.89c12.961,5.982,26.081,9.36,39.176,10.105 c3.245,0.222,6.303,0.353,9.33,0.353c11.324,0,21.418-1.594,30.868-4.887c10.737-3.904,19.121-11.335,23.961-21.005 c1.084-2.209,2.077-4.551,2.807-6.979c2.898-9.112,0.91-19.076-5.264-26.42c-5.355-6.349-13.209-9.949-21.357-9.949 c-1.259,0-2.515,0.073-3.759,0.234c-1.625,0.249-3.307,0.424-5.047,0.57c-3.219,0.396-6.466,0.568-9.73,0.568 c-2.322,0-4.694-0.07-7.006-0.26c-11.001-0.895-21.853-3.905-32.138-8.923c-21.841-10.886-37.729-27.941-45.802-49.209 c-4.304-11.295-4.845-24.285-1.625-37.51c3.029-11.822,9.229-23.932,18.388-35.78c8.804-11.354,19.661-21.709,31.245-29.77 c11.791-7.766,24.723-13.972,37.039-17.581l3.305-0.659l4.535-0.484c1.405-0.131,2.838-0.395,4.214-0.805 c9.716-2.605,20.364-3.935,31.6-3.935c6.538,0,13.456,0.44,20.509,1.36c8.675,1.186,17.089,3.161,25.251,5.941l0.483,0.206 c7.501,2.807,15.209,6.609,22.453,11.161c28.934,18.126,47.776,46.635,52.952,80.297c4.506,28.146,20.162,55.049,42.893,73.96 c9.45,7.957,20.512,14.188,35.605,20.13c10.65,3.921,21.695,5.88,32.473,5.88c2.4,0,4.801-0.104,7.258-0.293l0.937-0.029 c12.26-0.353,24.516-7.665,32.181-19.542c5.15-8.104,5.822-18.255,1.727-26.944c-3.991-8.674-12.243-14.687-21.827-15.903 c-6.813-0.847-13.921-2.589-21.091-5.176c-10.504-3.659-20.073-9.217-28.702-16.603c-18.021-15.595-29.231-36.791-31.512-59.714 c-2.34-23.141,10.445-47.278,35.137-66.295c20.612-16.573,50.76-27.267,79.142-28.201l0.612-0.017l7.049,1.01 c1.024,0.147,1.991,0.249,3.016,0.293c37.89,1.319,71.064,15.624,93.473,40.286c23.435,24.899,34.157,57.112,30.604,91.004 c-2.985,28.57,5.222,58.618,22.439,82.506c7.87,10.811,17.666,20.404,29.165,28.658c10.214,7.254,22.308,12.375,37.13,15.709 c2.721,0.659,5.414,0.995,8.312,0.995c10.021,0,20.094-4.095,28.233-11.557c7.108-6.466,10.414-16.208,8.703-25.688 c-1.729-9.478-8.249-17.405-17.189-20.963c-6.61-2.647-12.93-6.143-18.843-10.443c-9.859-7.21-17.492-14.876-23.317-23.419 c-13.44-19.574-18.825-42.833-15.151-65.563c3.686-22.938,22.291-43.067,51.053-55.28c11.818-5.225,25.76-8.47,41.953-9.829 c4.144-0.293,8.396-0.455,12.492-0.455c10.883,0,20.582,1.129,29.637,3.469l0.529,0.146l5.938,2.795 c1.272,0.601,2.546,1.099,3.893,1.506c17.263,5.194,32.884,13.005,46.431,23.276l0.572,0.495 c13.354,10.913,24.385,24.08,32.432,38.821c16.174,29.083,18.208,64.117,5.791,96.256c-10.225,26.856-10.094,57.781,0.381,85.004 c5.207,13.87,12.082,25.819,20.479,35.388c3.966,4.64,8.807,9.203,14.614,13.766l0.54,0.454c4.858,4.065,10.532,7.823,16.59,10.913 c5.646,2.765,11.602,4.064,17.86,4.064c6.86,0,13.767-1.637,19.969-4.666c8.806-4.283,14.712-12.885,15.564-22.645 c0.83-9.758-3.479-19.267-11.324-25.027c-14.508-10.563-25.426-25.688-31.683-43.694c-8.073-22.251-7.195-45.891,2.283-66.94 c9.685-21.475,33.496-36.498,63.869-40.2c5.453-0.612,11.265-0.95,16.966-0.95c23.989,0,47.618,5.879,65.006,16.149l2.346,1.667 l3.772,3.044c1.048,0.893,2.225,1.696,3.395,2.429c7.341,4.373,14.273,9.318,20.608,14.744l0.454,0.425 c6.202,5.692,12.257,12.435,17.716,19.764c10.942,14.893,18.329,30.446,21.868,46.052c7.521,33.441,0.57,67.014-19.481,94.501 c-21.326,29.431-23.656,61.13-21.824,82.561c1.228,13.561,4.887,26.626,10.912,39c5.805,12.741,13.778,23.555,24.109,32.418 l0.479,0.454c6.85,6.334,16.571,10.004,26.991,10.004c3.362,0,6.729-0.396,10.064-1.109c9.375-2.065,16.997-8.821,20.23-17.862 c3.264-9.026,1.625-19.09-4.255-26.654c-11.733-14.935-18.551-32.387-19.913-50.526c-1.739-23.813,5.342-46.737,19.885-64.48 c12.107-14.861,32.12-23.026,56.521-23.026c4.913,0,10.034,0.321,15.213,1.024c26.799,3.012,55.731,16.809,75.92,36.045l0.409,0.365 l4.226,5.66c0.629,0.876,1.333,1.667,2.034,2.43c12.319,13.181,21.944,27.998,28.645,44.06c6.286,14.864,9.394,32.184,8.971,50.337 c-0.501,16.853-4.437,32.872-11.573,47.441c-7.493,14.892-18.067,27.998-31.331,38.794c-22.296,18.138-37.711,45.101-42.307,74.005 c-2.226,15.495-2.135,29.068,0.191,40.871c2.409,12.652,7.413,25.044,15.108,37.726c5.748,8.981,15.124,14.953,26.654,17.251 c1.738,0.381,3.553,0.659,5.221,0.82c0.947,0.1,1.889,0.129,2.824,0.129c8.859,0,17.35-4.197,22.628-11.479 c5.839-8.031,6.964-18.564,2.972-27.664c-6.963-15.977-8.858-34.494-5.646-53.525c4.153-23.247,16.762-43.59,35.462-57.106 c10.02-7.198,22.935-11.002,37.3-11.002c12.348,0,25.159,2.646,38.123,7.914c12.402,5.354,25.191,13.297,36.483,22.745 c5.516,4.639,10.733,9.67,15.445,14.936l0.378,0.452c4.096,4.872,8.061,10.55,11.618,16.664l0.262,0.494l2.138,5.733 c0.525,1.436,1.164,2.81,1.931,4.154c17.218,30.192,21.706,66.69,12.196,100.131c-10.236,33.103-32.532,58.335-64.158,72.41 c-13.513,5.996-25.626,14.584-36.144,25.48c-9.511,9.874-17.54,21.692-23.866,35.106c-6.025,12.99-9.391,26.084-10.148,39.161 c-1.05,14.995,0.412,28.26,4.566,40.202c3.889,10.733,11.318,19.13,21.021,23.987c2.163,1.081,4.534,2.033,6.918,2.795 c2.793,0.894,5.631,1.329,8.429,1.329c6.521,0,12.933-2.277,18.048-6.598c7.283-6.143,10.975-15.649,9.658-25.13 c-0.151-1.479-0.353-3.029-0.498-4.58c-0.718-6.101-0.818-11.646-0.353-17.145c0.922-11.045,3.948-21.87,8.924-32.184 c10.912-21.841,27.924-37.784,49.209-45.831c6.441-2.414,13.416-3.672,20.715-3.672c5.468,0,11.148,0.704,16.819,2.107 c11.79,2.984,23.872,9.187,35.755,18.313c11.409,8.876,21.734,19.716,29.794,31.273c7.745,11.763,13.944,24.721,17.557,37.022 l0.629,3.308l0.498,4.519c0.147,1.434,0.412,2.882,0.832,4.26c4.172,15.551,5.019,32.593,2.59,52.121 c-1.242,8.705-3.188,17.071-5.938,25.219l-0.181,0.438c-2.861,7.621-6.684,15.271-11.203,22.513 c-18.134,28.963-46.629,47.791-80.277,52.984c-28.145,4.52-55.105,20.129-73.991,42.875c-7.927,9.418-14.188,20.465-20.097,35.604 c-4.756,12.945-6.644,26.449-5.647,39.643l0.101,1.112c0.338,12.125,7.625,24.367,19.486,32.021 c4.55,2.938,9.827,4.432,15.124,4.432c4.021,0,8.059-0.86,11.805-2.632c8.721-4.037,14.745-12.263,15.888-21.767 c0.936-6.863,2.664-13.999,5.225-21.185c3.67-10.502,9.197-20.022,16.662-28.701c15.535-18.021,36.729-29.229,59.682-31.52 c1.813-0.164,3.613-0.281,5.441-0.281c21.589,0,43.201,12.598,60.797,35.434c16.613,20.625,27.294,50.789,28.232,79.125l0.045,0.587 l-1.049,7.066c-0.136,1.024-0.207,2.058-0.252,3.084c-1.316,37.81-15.625,71.042-40.318,93.483 c-21.506,20.214-49.311,31.16-78.609,31.16c-4.11,0-8.278-0.206-12.379-0.615c-3.834-0.412-7.551-0.584-11.264-0.584 c-25.335,0-50.559,8.163-71.227,23.025c-10.841,7.928-20.438,17.664-28.658,29.196c-7.284,10.212-12.435,22.29-15.71,37.1 c-2.925,12.165,0.979,25.829,10.386,36.362c5.354,5.97,12.946,9.306,20.861,9.306c1.577,0,3.26-0.178,4.885-0.44 c9.51-1.693,17.522-8.188,21.095-17.17c2.604-6.613,6.116-12.929,10.414-18.811c7.198-9.895,14.862-17.471,23.405-23.289 c15.244-10.534,33.616-16.299,51.729-16.299c4.651,0,9.318,0.38,13.863,1.111c22.908,3.657,43.036,22.269,55.295,51.024 c5.268,11.933,8.412,25.512,9.771,41.953c1.17,15.685,0.116,29.961-2.981,42.129l-0.151,0.587l-2.774,5.879 c-0.629,1.263-1.146,2.575-1.525,3.924c-5.178,17.233-12.988,32.887-23.257,46.432l-0.47,0.497 c-10.966,13.43-24.134,24.459-38.881,32.44c-16.085,8.983-34.685,13.637-54.033,13.637c-14.599,0-28.819-2.604-42.16-7.812 c-13.224-5.032-27.226-7.516-41.809-7.516c-14.822,0-29.755,2.721-43.229,7.928c-13.821,5.178-25.816,12.082-35.386,20.447 c-4.666,4.006-9.066,8.691-13.75,14.629l-0.365,0.409c-4.197,5.004-7.975,10.736-10.998,16.769 c-5.84,11.876-5.502,26.038,0.712,38.209c4.391,8.66,12.936,14.453,22.69,15.24c0.719,0.031,1.477,0.086,2.209,0.086 c8.895,0,17.304-4.243,22.585-11.467c10.534-14.515,25.673-25.452,43.757-31.746c9.728-3.511,20.188-5.296,30.602-5.296 c12.746,0,25.23,2.63,36.32,7.636c21.443,9.625,36.513,33.472,40.172,63.838c3.361,28.994-2.442,60.386-15.127,81.979l-1.728,2.368 l-3.073,3.717c-0.878,1.085-1.664,2.255-2.396,3.425c-4.36,7.284-9.272,14.188-14.715,20.597l-0.438,0.526 c-5.733,6.171-12.463,12.23-19.747,17.638c-14.895,10.944-30.427,18.316-46.051,21.855c-8.577,1.902-17.354,2.897-26.041,2.897 c-24.794,0-48.479-7.753-68.49-22.354c-25.44-18.486-52.648-22.32-70.987-22.32c-3.88,0-7.68,0.146-11.545,0.495 c-13.547,1.2-26.651,4.856-38.998,10.887c-12.786,5.851-23.553,13.81-32.418,24.108l-0.452,0.468 c-8.601,9.36-12.066,23.374-8.938,37.184c2.151,9.361,8.893,16.974,17.879,20.191c3.102,1.081,6.26,1.606,9.447,1.606 c6.131,0,12.232-2.018,17.178-5.938c14.963-11.67,32.443-18.576,50.555-19.925c2.371-0.146,4.77-0.231,7.109-0.231 c21.15,0,41.516,7.108,57.386,20.127c18.273,14.921,26.116,40.375,22.063,71.712c-3.087,26.797-16.896,55.759-36.117,75.98 l-0.353,0.412l-5.674,4.214c-0.85,0.645-1.671,1.315-2.43,2.015c-13.184,12.316-28.004,21.973-44.076,28.645 c-14.177,5.998-29.973,9.01-47.222,9.01l-3.38-0.031c-16.539-0.498-32.562-4.417-47.16-11.584 c-14.893-7.493-27.97-18.02-38.768-31.363c-18.165-22.267-45.084-37.656-74.033-42.279c-7.416-1.078-14.377-1.575-21.093-1.575 c-7.124,0-13.768,0.61-19.704,1.756c-12.73,2.486-25.134,7.435-37.775,15.158c-9.01,5.729-14.98,15.123-17.232,26.679 c-0.378,1.52-0.644,3.511-0.832,5.468c-0.919,9.83,3.47,19.427,11.512,25.193c4.787,3.479,10.562,5.293,16.326,5.293 c3.803,0,7.609-0.786,11.203-2.34c10.723-4.679,23.188-7.195,36.046-7.195c5.796,0,11.673,0.526,17.438,1.548 c23.26,4.157,43.59,16.767,57.107,35.487c13.704,18.93,14.804,46.406,3.103,75.371c-5.354,12.432-13.313,25.215-22.763,36.483 c-4.623,5.554-9.652,10.734-14.921,15.44l-0.483,0.44c-4.9,4.095-10.654,8.073-16.637,11.559l-0.494,0.264l-5.736,2.135 c-1.402,0.528-2.811,1.168-4.123,1.932c-19.547,11.178-41.982,17.058-64.803,17.058c-12.13,0-23.989-1.61-35.342-4.857 c-33.138-10.239-58.383-32.477-72.409-64.161c-6.028-13.513-14.602-25.629-25.483-36.129c-9.947-9.542-21.767-17.527-35.122-23.873 c-12.963-5.999-26.084-9.363-39.189-10.096c-3.263-0.262-6.288-0.378-9.294-0.378c-11.334,0-21.453,1.61-30.922,4.857 c-10.778,4.005-19.091,11.382-23.961,21.061c-1.096,2.312-2.063,4.595-2.795,6.964c-2.895,9.129-0.91,19.077,5.271,26.422 c5.325,6.348,13.225,9.947,21.412,9.947c1.217,0,2.491-0.086,3.705-0.264c1.622-0.203,3.308-0.408,5.047-0.553 c3.248-0.414,6.555-0.558,9.799-0.558c2.258,0,4.624,0.063,6.879,0.263c11.058,0.883,21.9,3.895,32.212,8.924 c21.841,10.887,37.729,27.94,45.788,49.213c4.3,11.32,4.857,24.313,1.582,37.537c-2.99,11.762-9.158,23.875-18.288,35.726 c-8.863,11.407-19.747,21.735-31.306,29.81c-11.765,7.75-24.722,13.955-37.023,17.556l-3.309,0.67l-4.55,0.466 c-1.403,0.148-2.809,0.412-4.201,0.796c-9.708,2.632-20.376,3.919-31.612,3.919c-6.549,0-13.457-0.412-20.508-1.284 c-8.691-1.232-17.071-3.219-25.217-6.003c-7.902-2.951-15.566-6.726-22.969-11.35c-28.937-18.11-47.775-46.633-53.028-80.28 c-4.458-28.17-20.073-55.062-42.832-73.96c-9.462-7.956-20.493-14.22-35.605-20.124c-10.632-3.926-21.664-5.886-32.443-5.886 c-2.384,0-4.872,0.089-7.213,0.298l-0.992,0.028c-12.264,0.349-24.548,7.665-32.158,19.572c-5.164,8.041-5.848,18.228-1.754,26.918 c4.037,8.661,12.288,14.687,21.768,15.886c6.832,0.879,13.986,2.635,21.183,5.21c10.475,3.628,20.024,9.154,28.671,16.617 c18.019,15.534,29.254,36.718,31.511,59.684c2.324,23.114-10.502,47.222-35.139,66.298c-20.653,16.556-50.761,27.237-79.14,28.201 l-0.614,0.029L1501.05,2778.451z"/> <g> <path fill="#002D3A" d="M2098.74,1535.174c-14.677-24.874-34.141-39.6-57.83-43.754c-24.17-4.221-47.95,3.631-65.536,12.396 c37.637-115.479,27.979-227.764-29.466-323.079c-41.208-68.354-105.151-123.542-183.123-161.493l0.789-2.441 c34.272-105.807,5.822-177.033-24.081-218.151c-48.53-66.734-137.423-106.579-237.781-106.579 c-100.362,0-189.254,39.845-237.785,106.579c-29.904,41.12-58.354,112.348-24.082,218.151l0.792,2.441 c-77.969,37.951-141.909,93.141-183.125,161.493c-57.46,95.315-67.102,207.57-29.474,323.057 c-17.594-8.746-41.316-16.604-65.535-12.374c-23.698,4.157-43.15,18.877-57.821,43.754 c-50.414,85.514,15.27,180.477,63.223,249.818l4.687,6.789c53.258,77.198,105.75,163.966,111.64,300.345 c4.294,99.38,21.48,159.471,52.561,183.614c10.644,8.271,22.788,12.451,36.271,12.451c4.858,0,9.902-0.537,15.099-1.64 c0.488-0.123,0.912-0.298,1.398-0.436c0.128-0.05,0.28-0.065,0.423-0.123c17.219-4.097,30.262-13.854,38.596-29.282 c17.028-31.58,10.463-81.533,1.047-120.23c20.398,23.89,37.763,41.953,47.502,51.735 c110.526,110.99,175.546,125.944,224.579,125.944c49.028,0,114.058-14.954,224.563-125.944 c9.754-9.782,27.111-27.847,47.516-51.735c-9.415,38.697-15.967,88.65,1.063,120.23c8.311,15.434,21.363,25.186,38.578,29.282 c0.154,0.058,0.297,0.073,0.438,0.123c0.479,0.141,0.898,0.313,1.401,0.436c5.192,1.103,10.231,1.64,15.083,1.64 c13.493,0,25.629-4.181,36.281-12.451c31.063-24.145,48.254-84.234,52.545-183.614c5.91-136.379,58.396-223.146,111.638-300.345 l4.698-6.789C2083.463,1715.646,2149.147,1620.684,2098.74,1535.174z"/> <path fill="#F79433" d="M1654.635,1715.544c13.115,3.267,32.922,8.159,62.481,8.159c26.948,0,45.843-4.279,59.615-7.398 c6.835-1.563,12.368-2.798,17.144-3.197c0.32,0.08,0.642,0.16,0.965,0.199c-26.104,11.069-51.693,16.751-76.394,16.751 c-28.067,0-50.837-7.317-67.487-15.39C1652.163,1714.948,1653.391,1715.27,1654.635,1715.544z M1427.664,1411.475 c36.536,36.928,61.243,78.652,74.047,103.371c12.795-24.719,37.52-66.443,74.058-103.371c-22.868,7.049-47.37,11.91-74.058,11.91 C1475.023,1423.385,1450.519,1418.523,1427.664,1411.475z M1208.588,1713.311c26.105,11.068,51.676,16.75,76.399,16.75 c29.141,0,52.488-7.913,69.27-16.354c-2.289,0.439-5.079,1.124-8.037,1.84c-13.115,3.264-32.902,8.159-62.477,8.159 c-26.966,0-45.831-4.282-59.604-7.397c-6.097-1.383-11.092-2.519-15.498-2.995 C1208.611,1713.311,1208.611,1713.311,1208.588,1713.311z M1075.499,1787.344c-9.677-77.355-20.608-165.022-49.092-193.843 c-13.145-13.315-27.055-20.272-39.788-20.272c-4.655,0-9.145,0.916-13.396,2.802c-17.827,7.959-27.803,31.202-26.013,60.646 c2.95,48.804,30.164,85.509,64.637,131.979c11.63,15.687,23.684,31.917,36.055,50.229c12.678,18.783,27.362,41.89,41.856,65.314 c-0.609-3.15-1.179-6.313-1.668-9.468C1083.286,1848.891,1079.427,1818.847,1075.499,1787.344z M1913.645,1884.204 c14.508-23.423,29.189-46.532,41.859-65.314c12.394-18.315,24.422-34.544,36.055-50.23c34.482-46.478,61.691-83.178,64.639-131.984 c1.806-29.441-8.188-52.683-26.021-60.643c-4.24-1.885-8.718-2.801-13.388-2.801c-12.72,0-26.633,6.958-39.778,20.272 c-28.49,28.819-39.414,116.486-49.097,193.843c-3.916,31.503-7.793,61.548-12.584,87.391 C1914.854,1877.89,1914.265,1881.051,1913.645,1884.204z"/> <path fill="#FAA634" d="M1806.53,1692.858c-1.459-0.979-3.095-1.716-4.935-1.895c-5.358-0.999-10.88-2.341-16.714-3.76 c-17.228-4.117-36.738-8.817-62.386-8.817c-27.448,0-46.235,4.62-61.319,8.34c-7.103,1.724-13.258,3.238-19.449,4.114 c20.142-14.168,52.391-31.405,90.064-31.405c30.864,0,60.616,11.655,88.744,34.443 C1815.987,1693.997,1811.379,1693.64,1806.53,1692.858z M1921.961,1509.066c-10.556-69.7-59.047-123.207-129.723-143.123 c-17.87-5.029-35.702-7.566-52.97-7.566c-20.75,0-40.14,3.688-58.167,10.01c-6.955,2.719-14.03,5.734-21.181,8.901 c-87.115,42.7-137.316,144.447-146.425,164.282c1.005,3.653,2.39,8.193,3.961,13.39c15.694,52.088,29.53,105.077,11.063,129.925 c-4.314,5.797-12.465,12.712-26.805,12.712c-14.346,0-22.499-6.915-26.816-12.712c-18.445-24.845-4.638-77.834,11.075-129.925 c1.574-5.195,2.947-9.716,3.954-13.39c-9.218-19.992-60.279-123.201-148.63-165.275c-6.323-2.777-12.54-5.387-18.697-7.793 c-18.107-6.392-37.599-10.125-58.456-10.125c-17.261,0-35.079,2.534-52.938,7.566c-70.696,19.912-119.183,73.423-129.745,143.123 c-9.716,64.305,15.513,127.111,66.487,168.561c2.359-28.579,16.551-74.652,80.518-93.244 c91.858-26.621,198.409,48.449,225.383,128.408c28.396,84.105,17.075,218.313,14.517,244.354 c-1.768,18.089,1.565,32.385,9.65,41.297c2.758,3.019,5.788,5.096,8.774,6.614c0.934,0.479,1.841,0.898,2.744,1.281 c0.481,0.163,0.977,0.381,1.459,0.56c0.938,0.303,1.849,0.561,2.719,0.761c0.737,0.196,1.45,0.356,2.128,0.479 c0.707,0.099,1.411,0.243,2.071,0.305c0.409,0.06,0.818,0.097,1.22,0.137c0.909,0.063,1.808,0.12,2.589,0.12 c0.787,0,1.719-0.061,2.654-0.138c0.39-0.022,0.772-0.061,1.198-0.119c0.752-0.106,1.568-0.228,2.403-0.406 c0.62-0.099,1.268-0.255,1.929-0.421c0.906-0.24,1.812-0.505,2.755-0.837c0.436-0.143,0.913-0.319,1.352-0.521 c1.053-0.4,2.119-0.918,3.191-1.481c2.799-1.477,5.616-3.496,8.188-6.334c8.106-8.912,11.438-23.209,9.682-41.297 c-2.558-26.044-13.887-160.249,14.515-244.354c26.984-79.959,133.602-154.987,225.349-128.408 c64.007,18.594,78.192,64.684,80.55,93.244C1906.448,1636.176,1931.677,1573.371,1921.961,1509.066z M1362.768,1691.604 c-20.076-14.316-52.786-32.166-91.138-32.166c-30.856,0-60.634,11.654-88.763,34.442c3.625,0.077,7.304-0.123,11.12-0.605 c1.351-1.03,2.851-1.877,4.639-2.191c5.547-0.998,11.284-2.392,17.363-3.877c17.227-4.117,36.744-8.813,62.388-8.813 c27.445,0,46.226,4.616,61.325,8.337c7.348,1.8,13.733,3.376,20.127,4.239c0.649,0.037,1.284,0.114,1.871,0.234 C1362.102,1691.262,1362.391,1691.482,1362.768,1691.604z M950.715,1718.622c-14.156-24.865-23.918-50.626-25.737-80.589 c-2.356-38.962,12.666-70.484,39.167-82.314c24.416-10.915,53.607-2.658,78.104,22.146 c32.229,32.585,43.685,113.771,53.847,194.768c5.84-15.931,14.074-31.401,25.274-46.209c6.783-8.963,13.802-17.352,20.899-24.99 c-39.096-28.803-66.078-68.315-78.097-112.369c-9.055-17.268-17.089-34.578-24.056-51.849 c-8.464-6.318-42.095-29.497-73.838-23.835c-16.935,2.987-31.223,14.137-42.402,33.11 C891.779,1600.891,917.244,1663.579,950.715,1718.622z M1175.211,2265.764c0.24-17.555-1.416-63.979-18.571-155.728 c-7.393-39.531-18.368-81.312-32.606-124.046c-0.259-0.795-0.198-1.56-0.283-2.32c-23.314-39.456-64.453-108.092-94.304-152.313 c-12.104-17.904-23.994-33.938-35.49-49.434c-6.366-8.574-12.555-16.945-18.478-25.22c3.648,5.315,7.262,10.577,10.743,15.606 l4.715,6.839c40.715,59.011,108.864,157.784,115.533,312.02c3.946,91.188,18.746,147.349,43.98,167.001 C1157.605,2263.701,1165.784,2266.182,1175.211,2265.764z M2017.182,1772.311c3.48-5.03,7.121-10.291,10.76-15.607 c-5.919,8.273-12.116,16.647-18.471,25.223c-11.507,15.493-23.393,31.526-35.482,49.432 c-29.871,44.223-71.02,112.854-94.318,152.312c-0.08,0.762-0.022,1.525-0.283,2.32c-14.23,42.734-25.223,84.513-32.624,124.046 c-17.246,92.361-18.886,138.358-18.586,155.729c9.434,0.42,17.633-2.037,24.784-7.597c25.229-19.652,40.037-75.813,43.973-167.001 c6.683-154.234,74.839-253.008,115.536-312.02L2017.182,1772.311z M2079.543,1546.488c-11.214-19-25.494-30.154-42.492-33.127 c-31.943-5.628-65.314,17.518-73.754,23.852c-6.958,17.272-14.988,34.584-24.062,51.849 c-12.006,44.052-38.981,83.567-78.078,112.37c7.109,7.639,14.116,16.029,20.886,24.99c11.219,14.81,19.449,30.277,25.287,46.208 c10.149-80.996,21.604-162.183,53.85-194.767c24.481-24.807,53.707-33.061,78.095-22.147c26.499,11.83,41.513,43.354,39.159,82.314 c-1.806,29.983-11.596,55.724-25.727,80.589C2086.187,1663.599,2111.65,1600.938,2079.543,1546.488z"/> <path fill="#F58233" d="M1208.991,2246.115c-2.962,5.479-6.815,9.676-11.511,12.831c-0.267-22.925-3.394-69.794-18.945-153.011 c-3.118-16.705-7.016-33.841-11.354-51.191c8.125,12.039,16.391,23.592,24.601,34.544 C1203.905,2120.232,1230.052,2207.079,1208.991,2246.115z M1805.936,2258.946c0.257-22.942,3.393-69.794,18.945-153.011 c3.117-16.705,7.018-33.841,11.354-51.191c-8.141,12.039-16.374,23.549-24.604,34.518 c-12.119,30.959-38.224,117.875-17.191,156.851C1797.398,2251.594,1801.232,2255.791,1805.936,2258.946z M1710.486,2172.475 c-104.735,105.222-164.323,119.414-208.773,119.414c-44.458,0-104.033-14.192-208.792-119.414 c-126.162-126.643-242.134-315.974-153.788-432.605c7.146-9.43,14.511-18.128,21.949-25.961 c42.135,25.509,83.797,38.455,123.908,38.455c72.009,0,113.273-41.432,114.979-43.167c0.303-0.341,0.432-0.744,0.701-1.1 c0.461-0.581,0.85-1.161,1.176-1.818c0.323-0.667,0.552-1.319,0.729-2.006c0.123-0.397,0.363-0.759,0.43-1.173 c0.03-0.259-0.066-0.548-0.026-0.803c0.06-0.798-0.023-1.533-0.123-2.334c-0.063-0.442,0.051-0.844-0.063-1.279 c-0.05-0.223-0.221-0.405-0.298-0.627c-0.231-0.739-0.601-1.373-0.98-2.054c-0.36-0.601-0.672-1.247-1.133-1.766 c-0.149-0.181-0.195-0.4-0.345-0.552c-2.23-2.32-55.092-56.528-128.41-56.528c-35.598,0-69.558,12.849-101.31,38.135 c2.79-22.388,15.511-55.323,64.343-69.521c80.555-23.312,174.188,43.34,198.085,114.136 c26.914,79.788,15.938,209.813,13.441,235.059c-1.302,13.332-0.18,24.127,2.126,33.021c-11.152-5.656-17.821-11.189-20.637-20.388 c-2.781-8.992,0.572-12.691,8.313-18.506c7.222-5.397,5.726-12.017,5.1-13.916c-1.518-4.555-6.366-7.851-11.152-7.851 c-5.997,0-14.259,4.652-20.102,11.327c-5.413,6.18-11.444,16.911-9.292,32.861c3.015,22.728,23.067,38.98,40.767,53.326 c8.363,6.795,16.279,13.219,21.334,19.393c6.649,8.131,11.084,16.431,15.003,23.742c6.146,11.477,11.942,22.346,24.055,22.346 c12.113,0,17.904-10.869,24.064-22.346c3.908-7.313,8.343-15.611,14.975-23.742c5.078-6.174,12.994-12.598,21.347-19.393 c17.7-14.346,37.766-30.6,40.771-53.327c2.166-15.946-3.874-26.679-9.292-32.86c-5.84-6.676-14.086-11.327-20.088-11.327 c-4.795,0-9.633,3.296-11.152,7.851c-0.646,1.899-2.134,8.519,5.115,13.938c7.72,5.791,11.076,9.489,8.271,18.487 c-2.795,9.195-9.468,14.729-20.644,20.383c2.293-8.89,3.454-19.688,2.138-33.02c-2.479-25.246-13.473-155.271,13.45-235.059 c23.927-70.797,117.627-137.464,198.065-114.135c48.853,14.195,61.558,47.129,64.355,69.52 c-31.734-25.286-65.721-38.138-101.295-38.138c-73.319,0-126.188,54.211-128.399,56.527c-0.168,0.157-0.227,0.378-0.365,0.575 c-0.455,0.523-0.762,1.146-1.119,1.723c-0.381,0.703-0.764,1.337-1.004,2.077c-0.074,0.221-0.238,0.402-0.275,0.623 c-0.12,0.437,0,0.837-0.086,1.282c-0.073,0.795-0.15,1.53-0.116,2.334c0.043,0.258-0.034,0.547-0.023,0.802 c0.063,0.417,0.305,0.777,0.428,1.173c0.193,0.685,0.426,1.34,0.732,2.006c0.346,0.657,0.74,1.238,1.181,1.819 c0.284,0.338,0.386,0.759,0.707,1.1c1.696,1.738,42.983,43.167,114.993,43.167c40.092,0,81.748-12.946,123.882-38.455 c7.437,7.833,14.812,16.534,21.95,25.961C1952.623,1856.506,1836.651,2045.829,1710.486,2172.475z M1589.547,2183.335 c0.055-6.239-2.148-17.938-17.517-26.404c-5.737-3.138-12.256-4.761-19.334-4.761c-11.032,0-21.98,3.877-31.65,7.232 c-7.426,2.602-14.44,5.078-19.342,5.078c-4.897,0-11.909-2.479-19.34-5.078c-9.673-3.355-20.616-7.232-31.648-7.232 c-7.086,0-13.584,1.623-19.332,4.761c-15.361,8.466-17.57,20.165-17.538,26.404c0.1,13.333,10.342,26.662,27.391,35.733 c23.012,12.218,37.92,18.051,60.465,18.051c22.549,0,37.46-5.833,60.469-18.051 C1579.228,2209.997,1589.482,2196.668,1589.547,2183.335z M1622.361,2116.671c-5.219-0.759-11.173-1.594-18.188-4.878 c-2.915-1.336-5.68-2.678-8.337-3.997c-11.558-5.64-22.469-10.976-34.688-10.976c-5.133,0-10.085,0.918-15.083,2.82 c-19.172,7.153-34.925,11.112-44.354,11.112c-9.428,0-25.188-3.959-44.357-11.112c-5.004-1.898-9.954-2.82-15.089-2.82 c-12.211,0-23.117,5.336-34.67,10.976c-2.658,1.319-5.424,2.661-8.346,3.997c-7.016,3.284-12.964,4.119-18.19,4.878 c-6.412,0.901-21.406,3.044-20.325,19.226c0.642,9.479,7.856,15.827,17.941,15.827c7.891,0,18.524-3.554,34.418-11.489 c4.489-2.261,8.316-4.537,11.884-6.713c7.733-4.702,11.733-6.939,17.71-6.939c3.027,0,6.495,0.602,10.623,1.819 c7.954,2.381,14.242,4.561,19.572,6.438c10.942,3.804,18.846,6.578,28.833,6.578c9.981,0,17.887-2.774,28.842-6.578 c5.315-1.879,11.593-4.06,19.555-6.438c4.135-1.22,7.588-1.819,10.627-1.819c5.978,0,9.981,2.237,17.712,6.939 c3.55,2.176,7.391,4.455,11.873,6.713c15.913,7.937,26.545,11.489,34.409,11.489c10.105,0,17.324-6.349,17.959-15.827 C1643.767,2119.715,1628.77,2117.572,1622.361,2116.671z"/> <path fill="#CD1743" d="M1311.012,1341.703c-14.81-3.592-30.424-5.611-46.875-5.611c-19.306,0-39.15,2.838-58.994,8.408 c-13.092,3.688-25.495,8.43-37.153,14.1c-21.105-66.004-18.73-166.918,35.82-247.035c43.222-63.481,112.856-104.27,204.014-120.319 c-11.075,8.229-21.389,18.086-30.858,29.663C1312.202,1100.074,1299.875,1244.259,1311.012,1341.703z M1799.612,1111.564 c-43.224-63.482-112.854-104.271-204.014-120.32c11.072,8.229,21.39,18.089,30.856,29.663 c64.769,79.167,77.091,223.346,65.955,320.79c14.804-3.591,30.412-5.608,46.859-5.608c19.305,0,39.156,2.841,59,8.409 c13.096,3.688,25.504,8.428,37.162,14.102C1856.531,1292.599,1854.159,1191.682,1799.612,1111.564z M1545.477,718.931 c28.936,42.237,38.475,130.176,26.848,246.527c25.58,2.821,50.576,7.157,74.824,12.926c26.668-85.396,22.92-155.385-11.075-202.982 C1615.397,746.443,1584.002,727.113,1545.477,718.931z M1457.946,718.931c-38.529,8.181-69.917,27.514-90.6,56.471 c-33.998,47.599-37.743,117.584-11.075,202.982c24.247-5.769,49.241-10.104,74.824-12.926 C1419.471,849.105,1429.007,761.168,1457.946,718.931z"/> <path fill="#EC1E4D" d="M1510.625,1671.593c-1.363,1.84-3.49,3.739-8.914,3.739c-5.431,0-7.56-1.899-8.922-3.739 c-10.816-14.577,0-59.943,8.922-91.267C1510.625,1611.648,1521.447,1657.02,1510.625,1671.593z M1609.214,1035.016 c-25.344-30.984-57.444-48.073-95.514-51.019c-3.994-0.073-7.983-0.161-11.996-0.161c-4.011,0-8,0.088-11.989,0.161 c-38.069,2.944-70.167,20.033-95.514,51.019c-62.888,76.868-72.627,221.082-59.878,313.847c8.44,3.146,16.588,6.773,24.425,10.84 c3.027,1.342,5.966,2.632,9.059,4.017c40.827,18.389,83.038,37.396,133.9,37.396c50.869,0,93.084-19.006,133.896-37.396 c3.088-1.382,6.003-2.675,9.016-3.984c7.856-4.076,16.017-7.72,24.474-10.871 C1681.838,1256.098,1672.106,1111.887,1609.214,1035.016z M1522.516,725.564c-6.479-7.357-13.48-11.084-20.805-11.084 c-7.325,0-14.325,3.727-20.809,11.084c-11.287,12.809-44.999,66.642-27.669,237.797c15.97-1.199,32.145-1.813,48.478-1.813 c16.33,0,32.507,0.612,48.475,1.813C1567.512,792.203,1533.803,738.373,1522.516,725.564z"/> <path fill="#B00F37" d="M1148.198,1369.58c-48.014,30.172-79.977,78.169-88.758,136.159c-0.758,5.025-1.299,10.045-1.676,15.049 c-45.116-117.699-39.059-232.515,18.826-328.542c34.646-57.455,86.377-105.146,149.454-140.362 c-16.829,15.587-30.149,31.727-40.646,47.145C1125.504,1186.998,1124.031,1298.361,1148.198,1369.58z M1926.839,1192.246 c-34.645-57.459-86.384-105.15-149.469-140.368c16.83,15.585,30.152,31.731,40.652,47.147 c59.889,87.971,61.365,199.332,37.195,270.552c48.02,30.173,79.977,78.169,88.766,136.159c0.75,5.026,1.285,10.045,1.68,15.049 C1990.769,1403.089,1984.723,1288.273,1926.839,1192.246z M1349.221,762.46c4.438-6.212,9.295-12.022,14.521-17.455 c-88.459,43.399-145.611,132.513-102.709,264.938c23.479-10.21,48.113-18.895,73.653-25.998 C1298.916,868.563,1322.397,800.02,1349.221,762.46z M1639.676,745.005c5.231,5.433,10.084,11.243,14.521,17.455 c26.822,37.56,50.307,106.104,14.537,221.487c25.537,7.102,50.171,15.789,73.654,25.998 C1785.286,877.518,1728.139,788.404,1639.676,745.005z"/> </g> </svg>