<?xml version='1.0' encoding='utf-8'?>
<svg xmlns="http://www.w3.org/2000/svg" version="1.1" id="Layer_1" x="0px" y="0px" width="3000px" height="3000px" viewBox="0 0 3000 3000" enable-background="new 0 0 3000 3000"> <g> <path fill="#ACB4B7" d="M1866.656,1467.928c-62.868,0-676.913,0-739.768,0c-204.043,0-370.043,165.986-370.043,370.039 c0,384.24,302.072,581.6,638.661,750.414c31.874,15.966,66.543,23.984,101.248,23.984c34.716,0,69.386-8.019,101.261-23.984 c336.565-168.814,638.695-366.174,638.695-750.414C2236.711,1633.914,2070.699,1467.928,1866.656,1467.928z"/> <path fill="#CBD3D7" d="M1653.05,2284.113c-18.065-7.07-36.496-13.321-54.316-18.678c-2.64,2.614-5.283,5.26-8.183,8.139 c-16.957,16.816-31.072,29.173-42.405,39.079c-32.605,28.514-41.367,36.182-41.367,79.223h-20.013 c0-43.041-8.761-50.709-41.354-79.223c-11.346-9.906-25.46-22.263-42.406-39.079c-2.901-2.879-5.543-5.494-8.172-8.118 c-17.796,5.356-36.201,11.606-54.245,18.657c-158.972,62.215-345.893-0.611-473.379-176.575 c104.174,190.087,317.555,326.407,547.8,441.882c25.295,12.659,53.574,19.344,81.744,19.344h0.118 c28.185,0,56.462-6.685,81.756-19.344c230.246-115.475,443.617-251.795,547.813-441.882 C1998.942,2283.502,1812.022,2346.328,1653.05,2284.113z"/> <path fill="#ED1A3B" d="M1596.164,2408.144c-0.357-0.077-0.714-0.171-1.072-0.252c-1.985,11.543-5.821,29.08-11.805,37.328 c-9.341,12.877-2.902-15.283-13.963-39.67c-1.072-2.366-1.667-4.347-1.887-6.011c-4.745-1.705-9.455-3.477-14.104-5.233 c-19.375-7.362-37.641-14.272-53.796-14.272c-16.168,0-34.434,6.91-53.797,14.272c-6.563,2.477-13.23,4.987-19.961,7.285 c-0.326,1.187-0.801,2.497-1.464,3.959c-11.063,24.387-4.624,52.547-13.953,39.67c-5.809-7.998-9.596-24.733-11.632-36.267 c-7.916,1.422-16.575,2.212-25.738,2.212c-23.49,0-50.269-5.232-76.354-17.616c39.428,44.066,82.783,117.357,139.022,151.352 c-0.996-10.475,0.596-23.585,4.748-34.276c6.193-15.875,11.982-14.675,10.638,2.92c-0.849,11.204,1.32,19.813,2.853,26.37 c1.475-16.957,8.822-26.461,12.24-12.454c3.433,14.01,4.246,10.33,6.086,2.456c1.826-7.88,5.269-16.295,8.69-0.497 c3.408,15.804,4.329-0.259,5.531-4.526c1.215-4.271,6.957-5.266,9.232,5.635c0.344,1.631,0.72,3.469,1.098,5.397 c0.366-1.929,0.742-3.767,1.084-5.397c2.276-10.9,8.02-9.906,9.235-5.635c1.213,4.268,2.122,20.33,5.529,4.526 c3.419-15.798,6.863-7.383,8.702,0.497c1.841,7.874,2.643,11.554,6.073-2.456c3.432-14.007,10.768-4.503,12.253,12.454 c1.521-6.557,3.691-15.166,2.841-26.37c-1.332-17.595,4.447-18.795,10.638-2.92c4.125,10.596,5.725,23.605,4.773,34.043 c54.533-33.344,96.954-103.868,135.424-147.038C1658.133,2412.059,1622.484,2413.786,1596.164,2408.144z"/> <path fill="#CBD3D7" d="M1496.779,1762.518c0,0-252.827-58.915-209.786-7.057c43.018,51.869,88.396,354.271,101.663,447.689 c1.686,11.909,4.585,22.239,8.326,31.275l60.882,55.138c17.1,5.351,30.554,5.074,30.554,5.074h16.708 c0,0,13.456,0.276,30.554-5.074l60.885-55.138c3.752-9.036,6.64-19.366,8.327-31.275c13.265-93.418,58.653-395.82,101.66-447.689 C1749.594,1703.603,1496.779,1762.518,1496.779,1762.518z"/> <path fill="#ED1A3B" d="M1496.779,2338.173c-1.204,0-2.406-0.454-3.349-1.298l-91.367-82.192c-1.003-0.925-1.604-2.191-1.651-3.539 c-0.047-1.367,0.459-2.691,1.403-3.656l24.941-25.872c0.966-1.012,2.275-1.532,3.596-1.532c0.814,0,1.641,0.208,2.395,0.612 c0.259,0.145,26.438,14.174,64.032,14.174c37.57,0,63.761-14.029,64.02-14.174c0.742-0.404,1.567-0.612,2.393-0.612 c1.322,0,2.642,0.521,3.609,1.532l24.93,25.872c0.943,0.965,1.449,2.289,1.402,3.656c-0.047,1.348-0.648,2.614-1.649,3.539 l-91.356,82.192C1499.172,2337.719,1497.97,2338.173,1496.779,2338.173z"/> <g> <path fill="#FFFFFF" d="M1583.287,2445.22c5.984-8.25,9.82-25.792,11.807-37.335c-9.297-2.082-18.55-5.072-27.656-8.346 c0.22,1.664,0.814,3.645,1.887,6.011C1580.385,2429.937,1573.946,2458.097,1583.287,2445.22z"/> <path fill="#FFFFFF" d="M1553.134,2510.624c-6.19-15.875-11.97-14.675-10.638,2.92c0.851,11.204-1.319,19.813-2.841,26.37 c-1.485-16.957-8.821-26.461-12.253-12.454c-3.431,14.01-4.232,10.33-6.073,2.456c-1.839-7.88-5.283-16.295-8.702-0.497 c-3.407,15.804-4.316-0.259-5.529-4.526c-1.215-4.271-6.959-5.266-9.235,5.635c-0.342,1.631-0.718,3.469-1.084,5.397 c-0.378-1.929-0.754-3.767-1.098-5.397c-2.275-10.9-8.018-9.906-9.232-5.635c-1.202,4.268-2.123,20.33-5.531,4.526 c-3.421-15.798-6.864-7.383-8.69,0.497c-1.84,7.874-2.653,11.554-6.086-2.456c-3.418-14.007-10.766-4.503-12.24,12.454 c-1.533-6.557-3.702-15.166-2.853-26.37c1.344-17.595-4.445-18.795-10.638-2.92c-4.152,10.691-5.744,23.802-4.748,34.276 c18.828,11.381,39.099,18.358,61.151,18.358c22.032,0,42.282-7.089,61.094-18.592 C1558.858,2534.229,1557.259,2521.22,1553.134,2510.624z"/> <path fill="#FFFFFF" d="M1410.363,2445.22c9.329,12.877,2.89-15.283,13.953-39.67c0.664-1.464,1.139-2.774,1.465-3.96 c-7.563,2.582-15.206,4.896-22.893,6.554c-1.358,0.293-2.75,0.558-4.157,0.81l0,0 C1400.768,2420.486,1404.555,2437.222,1410.363,2445.22z"/> </g> <path fill="#9E0621" d="M1436.07,2528.449c-0.15,1.188-0.316,2.379-0.415,3.559c-48.333-35.396-83.75-102.228-99.57-124.946 c12.795,2.782,25.258,4.104,36.909,4.104c9.163,0,17.822-0.79,25.738-2.212c2.036,11.533,5.823,28.269,11.632,36.267 c1.238,1.707,2.191,2.675,2.951,3.044c0-0.001-0.001-0.001-0.002-0.001v37.03c0,17.151,9.075,32.828,22.519,44.926 C1435.893,2529.631,1435.995,2529.039,1436.07,2528.449z M1596.164,2408.144c-0.357-0.077-0.714-0.171-1.072-0.252 c-1.985,11.543-5.821,29.08-11.805,37.328c-1.294,1.784-2.277,2.755-3.055,3.083v36.99c0,17.155-9.071,32.837-22.516,44.936 c-0.06-0.566-0.159-1.134-0.229-1.701c0.141,1.123,0.301,2.253,0.396,3.368c47.493-35.001,82.539-100.492,98.799-123.584 C1634.359,2412.345,1613.285,2411.823,1596.164,2408.144z M1499.538,2380.033c-3.927,0-7.971,0.404-12.124,1.13 c4.458,25.597,6.558,72.716,9.21,72.716c2.678,0,4.789-48.114,9.352-73.513C1503.794,2380.151,1501.638,2380.033,1499.538,2380.033 z"/> <g> <path fill="#0D131A" d="M1988.937,1785.185c0,0-246.271-13.28-310.715,165.563c-27.795,77.099-9.08,149.688-9.08,149.688 s-0.402-21.624,23.809-46.199c27.322-27.687,83.878-19.86,137.298-19.86c84.903,0,153.725-68.815,153.725-153.721 C1983.973,1802.188,1988.937,1785.185,1988.937,1785.185z"/> <path fill="#3BBAE2" d="M1928.171,1787.752c-67.676,7.339-174.738,33.231-229.867,121.533 c13.147,60.805,67.205,106.393,131.944,106.393c74.562,0,135.021-60.479,135.021-135.023 C1965.269,1844.641,1951.144,1811.95,1928.171,1787.752z"/> <path fill="#0D131A" d="M1742.241,1880.654c0,48.605,39.399,88.018,88.007,88.018s88.005-39.412,88.005-88.018 c0-36.723-22.498-68.163-54.446-81.366c-39.504,10.162-82.145,27.378-117.935,56.459 C1743.538,1863.65,1742.241,1871.994,1742.241,1880.654z"/> <path fill="#DDD6CA" d="M1885.672,1846.341c-3.88,6.557-14.858,7.263-24.505,1.553c-9.634-5.683-14.305-15.659-10.424-22.216 c3.892-6.583,14.858-7.262,24.492-1.58C1884.88,1829.777,1889.552,1839.755,1885.672,1846.341z"/> <path fill="#CBD3D7" d="M1988.937,1785.185c0,0-4.964,17.003-4.964,95.47c0,84.905-68.821,153.721-153.725,153.721 c-53.42,0-109.976-7.826-137.298,19.86c-13.352,13.565-19.187,26.178-21.77,34.808l-2.039,11.392 c0,0,164.81,33.655,319.795-72.186c154.987-105.851,182.781-228.961,182.781-228.961S2091.766,1776.151,1988.937,1785.185z"/> <path fill="#0D131A" d="M1004.62,1785.185c0,0,246.272-13.28,310.716,165.563c27.795,77.099,9.068,149.688,9.068,149.688 s0.425-21.624-23.797-46.199c-27.322-27.687-83.879-19.86-137.298-19.86c-84.894,0-153.725-68.815-153.725-153.721 C1009.584,1802.188,1004.62,1785.185,1004.62,1785.185z"/> <path fill="#3BBAE2" d="M1065.386,1787.752c67.676,7.339,174.738,33.231,229.867,121.533 c-13.137,60.805-67.216,106.393-131.944,106.393c-74.564,0-135.011-60.479-135.011-135.023 C1028.298,1844.641,1042.416,1811.95,1065.386,1787.752z"/> <path fill="#0D131A" d="M1251.314,1880.654c0,48.605-39.398,88.018-88.005,88.018c-48.608,0-88.006-39.412-88.006-88.018 c0-36.723,22.499-68.163,54.444-81.366c39.517,10.162,82.157,27.378,117.935,56.459 C1250.017,1863.65,1251.314,1871.994,1251.314,1880.654z"/> <path fill="#DDD6CA" d="M1107.897,1846.341c3.868,6.557,14.847,7.263,24.492,1.553c9.636-5.683,14.305-15.659,10.414-22.216 c-3.868-6.583-14.847-7.262-24.481-1.58C1108.676,1829.777,1104.005,1839.755,1107.897,1846.341z"/> <path fill="#CBD3D7" d="M1004.62,1785.185c0,0,4.964,17.003,4.964,95.47c0,84.905,68.831,153.721,153.725,153.721 c53.418,0,109.976-7.826,137.298,19.86c13.349,13.565,19.187,26.178,21.769,34.808l2.028,11.392 c0,0-164.798,33.655-319.784-72.186c-154.974-105.851-182.78-228.961-182.78-228.961S901.79,1776.151,1004.62,1785.185z"/> </g> </g> <g> <path fill="#ED1A3B" d="M763.625,1467.242l68.938,484.751c6.747,47.477-26.26,91.462-73.736,98.213 c-47.512,6.744-91.451-26.272-98.206-73.755l-68.927-484.748c-6.745-47.49,26.261-91.455,73.749-98.213 C712.931,1386.746,756.881,1419.766,763.625,1467.242z M514.762,1492.277c-27.713,4.08-46.875,29.841-42.784,57.527l61.262,415.775 c4.091,27.717,29.847,46.864,57.569,42.785 M2242.548,1467.242l-68.937,484.751c-6.746,47.477,26.261,91.462,73.736,98.213 c47.5,6.744,91.45-26.272,98.206-73.755l68.928-484.748c6.745-47.49-26.262-91.455-73.75-98.213 C2293.243,1386.746,2249.295,1419.766,2242.548,1467.242z M2423.632,2008.691c27.83,3.232,52.995-16.695,56.214-44.55 l48.384-417.472c3.231-27.784-16.71-52.94-44.54-56.177"/> <path fill="#CBD3D7" d="M2464.033,1457.292c-6.31-0.731-12.314,1.129-16.971,4.724l0.506-4.371 c1.499-12.807-7.687-24.41-20.493-25.898c-5.004-0.582-9.814,0.487-13.919,2.749c1.152-249.118-44.709-512.873-197.472-710.207 c-153.604-198.404-393.342-299.016-712.598-299.016c-319.253,0-559.003,100.612-712.598,299.016 c-154.527,199.613-199.668,467.19-197.411,718.833c-4.672-7.977-13.851-12.751-23.553-11.328 c-12.748,1.889-21.579,13.765-19.692,26.523l0.64,4.346c-4.763-3.444-10.816-5.115-17.091-4.19 c-12.747,1.885-21.58,13.747-19.706,26.493l78.196,530.662c1.897,12.779,13.773,21.604,26.532,19.719 c6.272-0.929,11.585-4.275,15.15-8.95l0.641,4.351c1.875,12.759,13.749,21.577,26.509,19.715 c5.399-0.798,10.079-3.394,13.555-7.078c2.115,8.49,4.194,16.673,6.222,24.506c4.882,18.872,24.163,30.187,43.017,25.331 c18.87-4.883,30.213-24.151,25.332-43.014c-52.642-203.374-201.178-896.887,97.486-1282.696 c139.527-180.234,360.503-271.638,656.773-271.638c296.27,0,517.236,91.404,656.773,271.638 c298.653,385.81,150.118,1079.322,97.487,1282.696c-4.882,18.862,6.45,38.131,25.317,43.014c2.974,0.776,5.956,1.132,8.882,1.132 c15.696,0,30.033-10.568,34.15-26.463c2.878-11.118,5.857-22.927,8.901-35.354c1.264,10.479,9.537,19.133,20.485,20.376 c12.805,1.492,24.398-7.686,25.883-20.516l0.505-4.356c3.708,4.568,9.12,7.756,15.415,8.486c12.807,1.482,24.41-7.716,25.92-20.522 l61.744-532.843C2486.025,1470.354,2476.84,1458.773,2464.033,1457.292z"/> <path fill="#ED1A3B" d="M2004.437,639.278c-11.484,0-23.1-3.3-33.359-10.175c-62.652-42.016-241.85-121.45-471.551-121.45 c-229.703,0-408.899,79.435-471.563,121.45c-27.523,18.452-64.798,11.096-83.255-16.43c-18.454-27.532-11.107-64.799,16.428-83.265 c78.548-52.662,280.338-141.774,538.391-141.774c258.052,0,459.842,89.112,538.391,141.774 c27.523,18.466,34.869,55.732,16.427,83.265C2042.763,629.943,2023.777,639.278,2004.437,639.278z"/> </g> <g> <path fill="#DBB64A" d="M1585.562,646.69c0.398-1.279,0.626-2.578,0.626-3.896c0-18.442-40.023-33.396-89.409-33.396 c-49.387,0-89.409,14.954-89.409,33.396c0,1.318,0.227,2.617,0.625,3.896c-306.979,26.737-658.307,197.162-658.307,665.457 c0,387.315,0,482.93,0,506.535c0,0.005,0,0.009,0,0.012c0,7.728,0,7.732,0,7.732s0.202-0.716,0.65-2.06 c2.967,14.621,20.266,56.287,120.61,56.287c12.087,0,25.224-0.592,39.081-1.75c43.123-3.606,76.614-14.313,115.352-26.716 c79.066-25.331,187.369-59.978,471.398-59.978c284.018,0,392.331,34.646,471.399,59.978 c38.749,12.403,72.226,23.109,115.363,26.716c13.832,1.158,26.991,1.75,39.056,1.75c100.39,0,117.661-41.673,120.623-56.285 c0.448,1.342,0.65,2.058,0.65,2.058s0-0.007,0-7.692c0-0.033-0.002-0.066,0-0.101c0-23.692,0-119.445,0-506.486 C2243.87,843.854,1892.534,673.428,1585.562,646.69z"/> <path fill="#FFE17F" d="M2141.606,1223.898c-10.76-323.076-308.532-532.426-557.696-573.624 c-9.09,14.853-44.63,25.938-87.131,25.938c-42.502,0-78.042-11.086-87.133-25.938c-249.169,41.197-546.94,250.548-557.72,573.624 c-9.143,274.267-4.428,418.823-1.608,472.753c83.987-68.067,232.598-148.09,482.071-173.128 c53.387-10.15,108.659-16.262,164.39-16.262c55.728,0,110.996,6.111,164.379,16.262c249.455,25.035,398.068,105.047,482.06,173.111 C2146.039,1642.691,2150.757,1498.139,2141.606,1223.898z"/> <path fill="#DBB64A" d="M1612.272,1389.092c-0.648,0-1.297-0.054-1.957-0.161c-26.462-4.409-78.537-10.955-113.549-10.955 c-34.987,0-87.086,6.546-113.561,10.955c-6.403,1.021-12.439-3.26-13.501-9.658c-1.062-6.378,3.254-12.431,9.646-13.516 c27.241-4.526,80.989-11.271,117.416-11.271c36.426,0,90.165,6.744,117.416,11.271c6.392,1.085,10.731,7.138,9.658,13.516 C1622.885,1385.025,1617.909,1389.092,1612.272,1389.092z M1623.841,1414.957c1.073-6.385-3.267-12.434-9.658-13.495 c-27.251-4.55-80.99-11.274-117.416-11.274c-36.427,0-90.175,6.725-117.416,11.274c-6.392,1.062-10.707,7.11-9.646,13.495 c1.062,6.412,7.098,10.683,13.501,9.658c26.474-4.398,78.574-10.955,113.561-10.955c35.012,0,87.087,6.557,113.549,10.955 c0.66,0.104,1.309,0.164,1.957,0.164C1617.909,1424.779,1622.885,1420.707,1623.841,1414.957z M1384.975,1353.307 c30.849-4.544,78.633-9.856,111.804-9.856c33.125,0,80.918,5.303,111.791,9.856c0.413,0.057,0.825,0.091,1.227,0.091 c1.838,0,3.645-0.612,5.142-1.769c1.793-1.387,2.937-3.478,3.184-5.732l13.303-128.722c0.388-3.67-1.676-7.145-5.071-8.586 c-1.05-0.427-2.159-0.662-3.242-0.662c-2.441,0-4.813,1.089-6.439,3.021l-53.548,64.406c-1.605,1.926-3.952,3.021-6.439,3.021 c-0.507,0-1.026-0.033-1.546-0.141c-2.983-0.564-5.437-2.686-6.39-5.565l-44.045-132.122c-1.133-3.404-4.329-5.717-7.924-5.717 c-3.609,0-6.792,2.313-7.949,5.717l-44.021,132.122c-0.955,2.88-3.408,5.001-6.403,5.565c-0.506,0.107-1.025,0.141-1.533,0.141 c-2.499,0-4.846-1.096-6.438-3.021l-53.573-64.406c-1.627-1.959-3.996-3.021-6.426-3.021c-1.097,0-2.194,0.215-3.242,0.662 c-3.396,1.425-5.46,4.916-5.083,8.572l13.326,128.735c0.236,2.266,1.38,4.346,3.184,5.746c1.485,1.143,3.278,1.755,5.142,1.755 C1384.162,1353.397,1384.562,1353.363,1384.975,1353.307z"/> </g> </svg>