<?xml version='1.0' encoding='utf-8'?>
<svg xmlns="http://www.w3.org/2000/svg" version="1.1" id="Layer_1" x="0px" y="0px" width="3000px" height="3000px" viewBox="0 0 3000 3000" enable-background="new 0 0 3000 3000"> <g> <path fill="#6B82C1" d="M1499.975,297.905c-663.917,0-1202.057,538.167-1202.057,1202.108 c0,445.669,242.513,834.677,602.78,1042.27c42.063-104.593,92.027-212.968,140.866-411.06 c82.369-333.348,46.286-497.029,26.114-612.035c-29.06,145.369-11.298,278.928-61.558,292.167 c-67.194,17.708-237.456-335.201-227.22-459.109c9.897-118.063,244.606-252.533,356.146-318.43 c0.195-0.124,0.389-0.267,0.587-0.386c1.951-1.166,3.917-2.311,5.891-3.449c3.192-1.896,6.283-3.734,9.232-5.498 c0,0,0.06,0.148,0.082,0.209c84.324-46.68,183.934-70.678,349.134-70.678c165.288,0,264.838,24.003,349.157,70.688 c0.025-0.07,0.078-0.22,0.078-0.22c3.734,2.228,7.678,4.573,11.785,7.004c1.109,0.649,2.217,1.286,3.314,1.942 c0.109,0.061,0.205,0.136,0.307,0.198c111.439,65.83,346.602,200.42,356.408,318.617 c10.391,123.908-160.051,476.817-227.145,459.109c-50.24-13.239-32.494-146.775-61.535-292.13 c-20.131,115.006-56.25,278.682,26.039,611.998c48.896,198.106,98.861,306.481,140.951,411.052 c360.275-207.593,602.748-596.601,602.748-1042.261C2702.092,836.071,2164.016,297.905,1499.975,297.905z"/> <g> <path fill="#F0D99F" d="M1932.35,1519.218c29.041,145.361,11.299,278.897,61.531,292.137 c67.094,17.701,237.535-335.209,227.146-459.116c-9.811-118.189-244.969-252.779-356.408-318.613 c-0.1-0.06-0.197-0.138-0.307-0.201c-1.098-0.658-2.205-1.294-3.313-1.937c-4.109-2.431-8.053-4.776-11.785-7.004 c0,0-0.057,0.148-0.078,0.217c-84.316-46.684-183.871-70.692-349.158-70.692c-165.201,0-264.811,24.002-349.134,70.681 c-0.022-0.063-0.079-0.204-0.079-0.204c-2.953,1.764-6.044,3.603-9.235,5.493c-1.97,1.145-3.936,2.287-5.891,3.446 c-0.202,0.119-0.393,0.263-0.587,0.39c-111.544,65.899-346.249,200.371-356.146,318.426 c-10.244,123.908,160.024,476.818,227.216,459.117c50.263-13.239,32.502-146.798,61.564-292.167 c20.168,115.006,56.251,278.682-26.118,612.036c-48.835,198.105-98.81,306.48-140.873,411.08 c176.47,101.67,381.117,159.789,599.283,159.789c218.246,0,422.867-58.119,599.365-159.818 c-42.088-104.569-92.057-212.952-140.951-411.051C1876.1,1797.906,1912.219,1634.229,1932.35,1519.218z M1931.852,1516.945 c0.008-0.016,0.016-0.037,0.027-0.054c0,0.017,0.008,0.038,0.008,0.054H1931.852z M1068.136,1516.945L1068.136,1516.945 L1068.136,1516.945L1068.136,1516.945z"/> </g> <g> <path fill="#4D2822" d="M1711.281,1848.76c-0.197,0.164-0.395,0.336-0.59,0.501c-1.064,0.882-2.156,1.749-3.266,2.603 c-39.91,29.772-97.418,4.356-122.037-7.423c-2.102-1.228-5.199-2.887-9.586-5.083c-40-20.041-45.994-60.938-45.994-76.785 c0-15.848,27.553-40.098,81.871-76c54.24-35.836,37.514-90.12,37.514-90.12c-4.182,42.578-40.066,66.738-60.938,66.738 c-20.813,0-50.875-5.922-53.43-39.215c-2.668-35.852,40.977-45.785,51.646-18.637c7.441,18.875-17.424,33.25-4.861,41.778 c19.883,13.471,63.287-23.995,59.412-75.671c-3.08-41.232-69.576-84.56-141.052-84.56c-71.434,0-137.898,43.326-140.975,84.56 c-3.876,51.676,39.478,89.142,59.282,75.671c12.614-8.528-12.304-22.903-4.758-41.778c10.701-27.148,54.289-17.215,51.653,18.637 c-2.534,33.293-32.625,39.215-53.462,39.215c-20.89,0-56.771-24.16-60.956-66.738c0,0-16.651,54.284,37.563,90.12 c54.292,35.902,81.771,60.151,81.771,76c0,15.848-5.895,56.744-45.864,76.785c-4.358,2.183-7.434,3.827-9.535,5.061 c-0.004,0-0.03,0.007-0.03,0.007c-24.078,11.505-79.647,36.12-119.441,9.39c-37.387-27-53.971-76.554-53.971-76.554 c0,67.009,75.902,332.248,258.729,332.248c182.778,0,258.831-265.24,258.831-332.248 C1758.807,1777.253,1744.151,1821.079,1711.281,1848.76z"/> <path fill="#4D2822" d="M1310.947,1318.555c0-34.609-28.181-62.693-62.742-62.693c-34.569,0-62.643,28.077-62.643,62.693 c0,34.617,28.073,62.673,62.643,62.673C1282.762,1381.219,1310.947,1353.172,1310.947,1318.555z"/> <path fill="#4D2822" d="M1751.727,1255.86c-34.486,0-62.611,28.076-62.611,62.693s28.129,62.672,62.611,62.672 c34.645,0,62.744-28.055,62.744-62.672C1814.467,1283.937,1786.365,1255.86,1751.727,1255.86z"/> </g> <path fill="#DCAF3C" d="M1906.041,1060.834c-3.076-421.502,98.68-452.366,38.52-486.023 c-65.744-36.814-111.836,251.438-269.518,203.307c-137.371-41.937-120.207-282.727-175.068-282.727 c-54.755,0-37.667,240.79-175.068,282.727c-157.599,48.132-203.668-240.122-269.517-203.306 c-60.104,33.656,41.704,64.521,38.497,486.022H1906.041z"/> <path fill="#F8FAF8" d="M1499.975,2045.805c9.052,0,39.035,3.47,75.832-10.264c36.834-13.701,54.416-53.507,63.984-78.87 c9.643-25.415-3.154-25.184-7.916-19.441l0,0c-9.871,12.102-21.293,24.166-32.412,33.631c-36.096,30.945-69.912,29.22-99.484,29.22 c-29.522,0-63.389,1.727-99.427-29.22c-11.067-9.465-22.549-21.529-32.551-33.631l0,0c-4.627-5.741-17.426-5.974-7.782,19.441 c9.567,25.363,27.168,65.169,64.01,78.87C1460.992,2049.272,1490.956,2045.805,1499.975,2045.805z"/> <path fill="#DB7C97" d="M1499.975,1830.177c26.009,0,151.708,52.916,151.708,52.916s-16.035,56.774-52.225,87.773 c-36.096,30.947-69.912,29.213-99.484,29.213c-29.523,0-63.053,1.346-99.427-29.213c-43.85-36.785-52.174-87.773-52.174-87.773 S1473.966,1830.177,1499.975,1830.177z"/> </g> </svg>